<?xml version="1.0" encoding="UTF-8" standalone="no"?>
<!-- Created with Inkscape (http://www.inkscape.org/) -->

<svg
   width="37mm"
   height="26mm"
   viewBox="0 0 37 26"
   version="1.1"
   id="svg1"
   inkscape:version="1.4.2 (ebf0e940d0, 2025-05-08)"
   sodipodi:docname="logoBase.svg"
   inkscape:export-filename="logoBase.png"
   inkscape:export-xdpi="3000"
   inkscape:export-ydpi="3000"
   xmlns:inkscape="http://www.inkscape.org/namespaces/inkscape"
   xmlns:sodipodi="http://sodipodi.sourceforge.net/DTD/sodipodi-0.dtd"
   xmlns="http://www.w3.org/2000/svg"
   xmlns:svg="http://www.w3.org/2000/svg">
  <sodipodi:namedview
     id="namedview1"
     pagecolor="#ffffff"
     bordercolor="#999999"
     borderopacity="1"
     inkscape:showpageshadow="0"
     inkscape:pageopacity="0"
     inkscape:pagecheckerboard="0"
     inkscape:deskcolor="#d1d1d1"
     inkscape:document-units="mm"
     inkscape:zoom="3.4435508"
     inkscape:cx="62.871151"
     inkscape:cy="64.903937"
     inkscape:window-width="956"
     inkscape:window-height="1036"
     inkscape:window-x="0"
     inkscape:window-y="20"
     inkscape:window-maximized="0"
     inkscape:current-layer="layer1" />
  <defs
     id="defs1">
    <clipPath
       clipPathUnits="userSpaceOnUse"
       id="clipPath95">
      <g
         id="g100"
         style="display:none">
        <path
           style="fill:none;stroke:#000000;stroke-width:0.264583px;stroke-linecap:butt;stroke-linejoin:miter;stroke-opacity:1"
           d="m 142.04164,123.26403 c -0.42422,-0.10351 -0.87118,-0.68042 -1.63989,-0.68266 -0.91568,-0.003 -1.62295,0.51889 -2.17337,1.25068 -0.52857,0.70274 -0.48979,1.7828 -0.2826,2.63738 0.27027,1.11474 0.89395,1.89115 1.86357,2.50396 0.88033,0.55638 1.94192,0.82872 2.97791,0.72262 1.41255,-0.14467 2.86587,-0.65268 3.87751,-1.62192 0.92416,-0.88543 1.42961,-2.21178 1.63187,-3.47556 0.20867,-1.30379 0.0164,-2.70857 -0.48037,-3.93192 -0.43001,-1.05888 -1.07322,-1.97121 -2.07479,-2.72955 -1.00157,-0.75834 -2.57639,-1.31368 -3.82311,-1.50607 -1.24672,-0.19239 -2.34724,-0.0186 -3.45156,0.23873 -1.10432,0.25729 -2.20881,0.59023 -3.09406,1.26734 -0.90798,0.6945 -1.60538,1.68503 -2.08533,2.72252 -0.61377,1.32677 -0.76391,2.6392 -0.85441,4.09825 -0.0672,1.0835 0.0767,2.40324 0.37652,3.44659 0.34107,1.18681 0.74562,2.32587 1.52055,3.28729 0.76646,0.9509 1.77644,1.71373 2.83837,2.31704 0.9279,0.52716 2.16102,0.92653 3.00893,1.09386 0.84791,0.16733 1.43022,-0.0331 1.87993,0.21444 0.44972,0.24752 0.70048,0.53164 0.74516,0.92506 0.0374,0.32926 -0.12155,0.68985 -0.43414,0.89433 -0.31259,0.20448 -1.72912,0.0842 -2.58443,-0.044 -0.96427,-0.1447 -1.89265,-0.42255 -2.80765,-0.81417 -0.80611,-0.34501 -1.72062,-0.76028 -2.42967,-1.27613 -0.80062,-0.58246 -1.59825,-1.26133 -2.21494,-2.03589 -0.60949,-0.76552 -1.09563,-1.63149 -1.50607,-2.51977 -0.49175,-1.06424 -0.90993,-2.17914 -1.12956,-3.33074 -0.21731,-1.13943 -0.3034,-2.32285 -0.17377,-3.47555 0.1356,-1.20581 0.45305,-2.4138 0.98474,-3.50452 0.49328,-1.01192 1.20945,-1.91951 1.99844,-2.72251 0.92701,-0.94346 2.01657,-1.71338 3.18592,-2.33151 1.05263,-0.55644 2.18373,-0.92865 3.3597,-1.11508 1.30636,-0.2071 2.66344,-0.0883 3.96792,0.13037 0.98459,0.16502 1.88841,0.43635 2.76596,0.91233 1.19018,0.64556 2.35479,1.36656 3.25833,2.37497 0.69178,0.77207 1.23893,1.68433 1.65089,2.63562 0.43645,1.00782 0.74373,2.09189 0.83992,3.18593 0.0925,1.05184 0.005,2.13494 -0.26066,3.15696 -0.19977,0.76949 -0.57065,1.49358 -0.98474,2.17222 -0.34006,0.5573 -0.74869,1.07957 -1.21644,1.53503 -0.4496,0.43779 -0.96399,0.81343 -1.50608,1.12956 -0.72824,0.42469 -1.50326,0.79356 -2.31703,1.0137 -0.96638,0.26142 -1.9888,0.46349 -2.98318,0.34755 -1.26496,-0.14749 -2.51178,-0.62785 -3.59141,-1.30333 -0.75243,-0.47076 -1.43144,-1.10712 -1.91155,-1.85363 -0.48232,-0.74994 -0.79662,-1.56647 -0.88864,-2.45336 -0.0885,-0.85286 0.008,-1.79437 0.25642,-2.61515 0.20486,-0.67785 0.58895,-1.34127 1.00874,-1.91155 0.37656,-0.51156 0.83553,-0.99381 1.39022,-1.30334 0.51537,-0.28759 1.12156,-0.40468 1.70881,-0.4634 0.58725,-0.0587 1.30696,0.0707 1.8589,0.27969 0.605,0.22907 0.85622,0.6187 1.09472,1.06972 0.14311,0.27064 0.23708,0.6078 0.16072,0.90427 -0.0515,0.20002 -0.20686,0.38565 -0.38967,0.48179 -0.2727,0.14342 -0.61649,0.14611 -0.92155,0.0717 z"
           id="path95"
           sodipodi:nodetypes="ssssssaaazzzassssazzazsssssssssssssssssaasssssssssssaaass" />
        <path
           style="fill:none;stroke:#000000;stroke-width:0.264583px;stroke-linecap:butt;stroke-linejoin:miter;stroke-opacity:1"
           d="m 145.43791,112.75201 c 0.35409,0.16134 0.83037,0.19456 1.16735,0 0.48836,-0.28195 0.58892,-0.9631 0.84586,-1.46507 0.35797,-0.69936 0.96661,-2.14963 0.96661,-2.14963 0,0 0.23814,-0.49209 0.28672,-0.75775 0.0798,-0.4365 0.19222,-0.93126 0,-1.3312 -0.0284,-0.0591 -0.25557,-0.21382 -0.31744,-0.23552 -0.29632,-0.10394 -0.50316,-0.0388 -0.77823,0.11264 -0.69346,0.38187 -0.87984,1.31806 -1.26975,2.00703 -0.33307,0.58852 -0.57243,1.22731 -0.91136,1.81247 -0.121,0.2089 -0.32986,0.37297 -0.39936,0.60416 -0.0894,0.29746 -0.1088,0.6409 0,0.93183 0.0729,0.19489 0.22025,0.38477 0.4096,0.47104 z"
           id="path96"
           sodipodi:nodetypes="ssscsssssssss" />
        <path
           style="fill:none;stroke:#000000;stroke-width:0.264583px;stroke-linecap:butt;stroke-linejoin:miter;stroke-opacity:1"
           d="m 137.4436,112.44858 c 0.22276,0.0638 0.47428,0.0701 0.69511,0 0.21125,-0.0671 0.44883,-0.18312 0.54305,-0.38375 0.12985,-0.27648 0.0384,-1.63543 0,-1.83915 -0.04,-0.21245 -0.23428,-1.48286 -0.26066,-1.69433 -0.0236,-0.18872 -0.0107,-1.20516 -0.27515,-1.7233 -0.031,-0.0608 -0.10476,-0.16799 -0.15206,-0.21722 -0.0888,-0.0924 -0.13608,-0.1586 -0.25343,-0.20998 -0.38691,-0.1694 -0.8769,-0.16164 -1.26712,0 -0.0694,0.0287 -0.12727,0.0914 -0.1593,0.1593 -0.0627,0.13296 -0.0218,1.3689 0,1.51331 0.0239,0.15832 0.23851,2.01727 0.26791,2.24463 0.028,0.21678 0.16857,1.65903 0.24618,1.76674 0.14134,0.19615 0.38303,0.31722 0.61547,0.38375 z"
           id="path97"
           sodipodi:nodetypes="ssssssssssssss" />
        <path
           style="fill:none;fill-opacity:1;stroke:#000000;stroke-width:0.264583px;stroke-linecap:butt;stroke-linejoin:miter;stroke-opacity:1"
           d="m 153.44562,126.20598 c 0.19521,0.13635 0.46799,0.0882 0.70235,0.13033 0.33274,0.0598 0.669,0.10135 0.99922,0.17378 0.31223,0.0685 0.60918,0.21033 0.92681,0.24618 0.48236,0.0545 0.98124,0.0533 1.45539,-0.0507 0.0793,-0.0174 0.15779,-0.0479 0.22446,-0.0941 0.0463,-0.0321 0.0774,-0.0819 0.11586,-0.12309 0.0873,-0.0937 0.17594,-0.18631 0.26066,-0.28239 0.0396,-0.045 0.0937,-0.0819 0.11585,-0.13758 0.0955,-0.2404 0.15023,-0.53915 0.0435,-0.77476 -0.0291,-0.0642 -0.0414,-0.0588 -0.16654,-0.13033 -0.12516,-0.0715 -0.39895,-0.1785 -0.60822,-0.23894 -0.43431,-0.12543 -1.09034,-0.23577 -1.3323,-0.25343 0,0 -2.7792,-0.0587 -2.83112,-0.0362 -0.0585,0.0253 -0.0948,0.0919 -0.11586,0.15206 -0.11306,0.32362 -0.10879,0.69662 -0.0217,1.02818 0.0385,0.14652 0.10745,0.30424 0.23164,0.39099 z"
           id="path98"
           sodipodi:nodetypes="sssssssssszssssss" />
        <path
           style="fill:none;fill-opacity:1;stroke:#000000;stroke-width:0.264583px;stroke-linecap:butt;stroke-linejoin:miter;stroke-opacity:1"
           d="m 151.37708,116.30527 c -0.11198,0.13665 -0.16981,0.92124 0,1.3312 0.072,0.17393 0.22543,0.32731 0.39936,0.39935 0.23651,0.098 0.53118,0.0973 0.76799,0 0.1842,-0.0756 0.27003,-0.29475 0.42496,-0.41984 0.2475,-0.19982 0.79871,-0.52223 0.79871,-0.52223 0,0 1.30746,-0.61175 1.87391,-1.0496 0.14229,-0.10999 0.25382,-0.25509 0.37376,-0.38911 0.0444,-0.0497 0.10531,-0.0909 0.128,-0.1536 0.0906,-0.25034 0.10414,-0.55369 0,-0.79872 -0.077,-0.18106 -0.24251,-0.33599 -0.42496,-0.4096 -0.40042,-0.16156 -0.91117,-0.18517 -1.29535,0 -0.0241,0.0116 -2.97999,1.93114 -3.04638,2.01215 z"
           id="path99"
           sodipodi:nodetypes="ssssscsssssss" />
        <path
           style="fill:none;stroke:#000000;stroke-width:0.264583px;stroke-linecap:butt;stroke-linejoin:miter;stroke-opacity:1"
           d="m 148.87853,132.59702 c 0.03,0.25019 0.20748,0.50261 0.36864,0.69632 0.15683,0.18851 0.37477,0.26586 0.57344,0.4096 0.18792,0.13597 0.38821,0.25398 0.58367,0.37887 0.12979,0.0829 2.33797,2.30068 2.37567,2.34495 0.17225,0.20226 0.48192,0.28294 0.74751,0.27648 0.22627,-0.005 0.56371,-0.0698 0.73728,-0.21504 0.1815,-0.1519 0.28714,-0.67432 0.27648,-0.73728 -0.0131,-0.0777 -0.0976,-0.47686 -0.17408,-0.54271 -0.11159,-0.0961 -3.34846,-3.28703 -3.34846,-3.28703 -0.14393,-0.15738 -0.28508,-0.21301 -0.47104,-0.31743 -0.13835,-0.0777 -0.31237,-0.11424 -0.47104,-0.11264 -0.2397,0.002 -0.41608,0.0866 -0.62463,0.2048 -0.12244,0.0694 -0.24128,0.17861 -0.31744,0.29696 -0.13172,0.20468 -0.28499,0.36248 -0.256,0.60415 z"
           id="path100"
           sodipodi:nodetypes="sssssssssssssss" />
      </g>
      <path
         id="lpe_path-effect100"
         class="powerclip"
         d="m 120.4499,81.060306 h 45.36992 V 156.26738 H 120.4499 Z m 21.59174,42.203724 v 1.9e-4 c 0.30506,0.0744 0.64885,0.0717 0.92155,-0.0717 0.18281,-0.0961 0.33817,-0.28177 0.38967,-0.48179 0.0764,-0.29647 -0.0176,-0.63363 -0.16072,-0.90427 -0.2385,-0.45102 -0.48972,-0.84065 -1.09472,-1.06972 -0.55194,-0.20899 -1.27165,-0.33839 -1.8589,-0.27969 -0.58725,0.0587 -1.19344,0.17581 -1.70881,0.4634 -0.55469,0.30953 -1.01366,0.79178 -1.39022,1.30334 -0.41979,0.57028 -0.80388,1.2337 -1.00874,1.91155 -0.24842,0.82078 -0.34492,1.76229 -0.25642,2.61515 0.092,0.88689 0.40632,1.70342 0.88864,2.45336 0.48011,0.74651 1.15912,1.38287 1.91155,1.85363 1.07963,0.67548 2.32645,1.15584 3.59141,1.30333 0.99438,0.11594 2.0168,-0.0861 2.98318,-0.34755 0.81377,-0.22014 1.58879,-0.58901 2.31703,-1.0137 0.54209,-0.31613 1.05648,-0.69177 1.50608,-1.12956 0.46775,-0.45546 0.87638,-0.97773 1.21644,-1.53503 0.41409,-0.67864 0.78497,-1.40273 0.98474,-2.17222 0.26566,-1.02202 0.35316,-2.10512 0.26066,-3.15696 -0.0962,-1.09404 -0.40347,-2.17811 -0.83992,-3.18593 -0.41196,-0.95129 -0.95911,-1.86355 -1.65089,-2.63562 -0.90354,-1.00841 -2.06815,-1.72941 -3.25833,-2.37497 -0.87755,-0.47598 -1.78137,-0.74731 -2.76596,-0.91233 -1.30448,-0.21867 -2.66156,-0.33747 -3.96792,-0.13037 -1.17597,0.18643 -2.30707,0.55864 -3.3597,1.11508 -1.16935,0.61813 -2.25891,1.38805 -3.18592,2.33151 -0.78899,0.803 -1.50516,1.71059 -1.99844,2.72251 -0.53169,1.09072 -0.84914,2.29871 -0.98474,3.50452 -0.12963,1.1527 -0.0435,2.33612 0.17377,3.47555 0.21963,1.1516 0.63781,2.2665 1.12956,3.33074 0.41044,0.88828 0.89658,1.75425 1.50607,2.51977 0.61669,0.77456 1.41432,1.45343 2.21494,2.03589 0.70905,0.51585 1.62356,0.93112 2.42967,1.27613 0.915,0.39162 1.84338,0.66947 2.80765,0.81417 0.85531,0.1282 2.27184,0.24848 2.58443,0.044 0.31259,-0.20448 0.47154,-0.56507 0.43414,-0.89433 -0.0447,-0.39342 -0.29544,-0.67754 -0.74516,-0.92506 -0.44971,-0.24754 -1.03202,-0.0471 -1.87993,-0.21444 -0.84791,-0.16733 -2.08103,-0.5667 -3.00893,-1.09386 -1.06193,-0.60331 -2.07191,-1.36614 -2.83837,-2.31704 -0.77493,-0.96142 -1.17948,-2.10048 -1.52055,-3.28729 -0.29982,-1.04335 -0.44372,-2.36309 -0.37652,-3.44659 0.0905,-1.45905 0.24064,-2.77148 0.85441,-4.09825 0.47995,-1.03749 1.17735,-2.02802 2.08533,-2.72252 0.88525,-0.67711 1.98974,-1.01005 3.09406,-1.26734 1.10432,-0.25733 2.20484,-0.43112 3.45156,-0.23873 1.24672,0.19239 2.82154,0.74773 3.82311,1.50607 1.00157,0.75834 1.64478,1.67067 2.07479,2.72955 0.49677,1.22335 0.68904,2.62813 0.48037,3.93192 -0.20226,1.26378 -0.70771,2.59013 -1.63187,3.47556 -1.01164,0.96924 -2.46496,1.47725 -3.87751,1.62192 -1.03599,0.1061 -2.09758,-0.16624 -2.97791,-0.72262 -0.96962,-0.61281 -1.5933,-1.38922 -1.86357,-2.50396 -0.20719,-0.85458 -0.24597,-1.93464 0.2826,-2.63738 0.55042,-0.73179 1.25769,-1.25368 2.17337,-1.25068 0.76871,0.002 1.21567,0.57915 1.63989,0.68266 z m 3.39627,-10.51202 c 0.35409,0.16134 0.83037,0.19456 1.16735,0 0.48836,-0.28195 0.58892,-0.9631 0.84586,-1.46507 0.35797,-0.69936 0.96661,-2.14963 0.96661,-2.14963 0,0 0.23814,-0.49209 0.28672,-0.75775 0.0798,-0.4365 0.19222,-0.93126 0,-1.3312 -0.0284,-0.0591 -0.25557,-0.21382 -0.31744,-0.23552 -0.29632,-0.10394 -0.50316,-0.0388 -0.77823,0.11264 -0.69346,0.38187 -0.87984,1.31806 -1.26975,2.00703 -0.33307,0.58852 -0.57243,1.22731 -0.91136,1.81247 -0.121,0.2089 -0.32986,0.37297 -0.39936,0.60416 -0.0894,0.29746 -0.1088,0.6409 0,0.93183 0.0729,0.19489 0.22025,0.38477 0.4096,0.47104 z m -7.99431,-0.30343 c 0.22276,0.0638 0.47428,0.0701 0.69511,0 0.21125,-0.0671 0.44883,-0.18312 0.54305,-0.38375 0.12985,-0.27648 0.0384,-1.63543 0,-1.83915 -0.04,-0.21245 -0.23428,-1.48286 -0.26066,-1.69433 -0.0236,-0.18872 -0.0107,-1.20516 -0.27515,-1.7233 -0.031,-0.0608 -0.10476,-0.16799 -0.15206,-0.21722 -0.0888,-0.0924 -0.13608,-0.1586 -0.25343,-0.20998 -0.38691,-0.1694 -0.8769,-0.16164 -1.26712,0 -0.0694,0.0287 -0.12727,0.0914 -0.1593,0.1593 -0.0627,0.13296 -0.0218,1.3689 0,1.51331 0.0239,0.15832 0.23851,2.01727 0.26791,2.24463 0.028,0.21678 0.16857,1.65903 0.24618,1.76674 0.14134,0.19615 0.38303,0.31722 0.61547,0.38375 z m 16.00202,13.7574 c 0.19521,0.13635 0.46799,0.0882 0.70235,0.13033 0.33274,0.0598 0.669,0.10135 0.99922,0.17378 0.31223,0.0685 0.60918,0.21033 0.92681,0.24618 0.48236,0.0545 0.98124,0.0533 1.45539,-0.0507 0.0793,-0.0174 0.15779,-0.0479 0.22446,-0.0941 0.0463,-0.0321 0.0774,-0.0819 0.11586,-0.12309 0.0873,-0.0937 0.17594,-0.18631 0.26066,-0.28239 0.0396,-0.045 0.0937,-0.0819 0.11585,-0.13758 0.0955,-0.2404 0.15023,-0.53915 0.0435,-0.77476 -0.0291,-0.0642 -0.0414,-0.0588 -0.16654,-0.13033 -0.12516,-0.0715 -0.39895,-0.1785 -0.60822,-0.23894 -0.43431,-0.12543 -1.09034,-0.23577 -1.3323,-0.25343 0,0 -2.7792,-0.0587 -2.83112,-0.0362 -0.0585,0.0253 -0.0948,0.0919 -0.11586,0.15206 -0.11306,0.32362 -0.10879,0.69662 -0.0217,1.02818 0.0385,0.14652 0.10745,0.30424 0.23164,0.39099 z m -2.06854,-9.90071 c -0.11198,0.13665 -0.16981,0.92124 0,1.3312 0.072,0.17393 0.22543,0.32731 0.39936,0.39935 0.23651,0.098 0.53118,0.0973 0.76799,0 0.1842,-0.0756 0.27003,-0.29475 0.42496,-0.41984 0.2475,-0.19982 0.79871,-0.52223 0.79871,-0.52223 0,0 1.30746,-0.61175 1.87391,-1.0496 0.14229,-0.10999 0.25382,-0.25509 0.37376,-0.38911 0.0444,-0.0497 0.10531,-0.0909 0.128,-0.1536 0.0906,-0.25034 0.10414,-0.55369 0,-0.79872 -0.077,-0.18106 -0.24251,-0.33599 -0.42496,-0.4096 -0.40042,-0.16156 -0.91117,-0.18517 -1.29535,0 -0.0241,0.0116 -2.97999,1.93114 -3.04638,2.01215 z m -2.49855,16.29175 c 0.03,0.25019 0.20748,0.50261 0.36864,0.69632 0.15683,0.18851 0.37477,0.26586 0.57344,0.4096 0.18792,0.13597 0.38821,0.25398 0.58367,0.37887 0.12979,0.0829 2.33797,2.30068 2.37567,2.34495 0.17225,0.20226 0.48192,0.28294 0.74751,0.27648 0.22627,-0.005 0.56371,-0.0698 0.73728,-0.21504 0.1815,-0.1519 0.28714,-0.67432 0.27648,-0.73728 -0.0131,-0.0777 -0.0976,-0.47686 -0.17408,-0.54271 -0.11159,-0.0961 -3.34846,-3.28703 -3.34846,-3.28703 -0.14393,-0.15738 -0.28508,-0.21301 -0.47104,-0.31743 -0.13835,-0.0777 -0.31237,-0.11424 -0.47104,-0.11264 -0.2397,0.002 -0.41608,0.0866 -0.62463,0.2048 -0.12244,0.0694 -0.24128,0.17861 -0.31744,0.29696 -0.13172,0.20468 -0.28499,0.36248 -0.256,0.60415 z" />
    </clipPath>
    <inkscape:path-effect
       effect="powerclip"
       message=""
       id="path-effect100"
       is_visible="true"
       lpeversion="1"
       inverse="true"
       flatten="false"
       hide_clip="false" />
    <clipPath
       clipPathUnits="userSpaceOnUse"
       id="clipath_lpe_path-effect7">
      <path
         style="display:none;fill:#000000;fill-opacity:0.6;fill-rule:evenodd;stroke:#010100;stroke-width:0.0595945"
         id="path7"
         sodipodi:type="arc"
         sodipodi:cx="127.86059"
         sodipodi:cy="95.754601"
         sodipodi:rx="59.702484"
         sodipodi:ry="62.331043"
         sodipodi:start="5.4876716"
         sodipodi:end="5.4626241"
         sodipodi:open="true"
         sodipodi:arc-type="arc"
         d="m 169.64743,51.23632 a 59.702484,62.331043 0 0 1 1.11489,87.86528 59.702484,62.331043 0 0 1 -84.151286,1.71414 59.702484,62.331043 0 0 1 -2.16877,-87.843804 59.702484,62.331043 0 0 1 84.124126,-2.814275" />
      <path
         id="lpe_path-effect7"
         style="fill:#000000;fill-opacity:0.6;fill-rule:evenodd;stroke:#010100;stroke-width:0.0595945"
         class="powerclip"
         d="M 59.592564,24.701042 H 196.12861 V 166.80817 H 59.592564 Z M 168.56639,50.157661 a 59.702484,62.331043 0 0 0 -84.124126,2.814275 59.702484,62.331043 0 0 0 2.16877,87.843804 59.702484,62.331043 0 0 0 84.151286,-1.71414 59.702484,62.331043 0 0 0 -1.11489,-87.86528" />
    </clipPath>
    <inkscape:path-effect
       effect="powerclip"
       message=""
       id="path-effect7"
       is_visible="true"
       lpeversion="1"
       inverse="true"
       flatten="false"
       hide_clip="false" />
  </defs>
  <g
     inkscape:label="Layer 1"
     inkscape:groupmode="layer"
     id="layer1">
    <path
       style="fill:#238534;fill-opacity:1;stroke:#0d6b1d;stroke-width:0.266729;stroke-linecap:butt;stroke-linejoin:miter;stroke-dasharray:none;stroke-opacity:1"
       d="m 125.58327,145.46821 c -0.003,1.00202 2.30616,3.79552 4.19115,4.74349 2.65997,1.33772 5.92417,0.85015 8.9001,0.75655 2.65356,-0.0835 5.32404,-0.42773 7.87792,-1.17196 2.62396,-0.76466 5.20507,-1.80756 7.53036,-3.24385 1.6322,-1.00818 3.16868,-2.23806 4.40237,-3.70726 0.89019,-1.06013 2.08533,-3.5914 2.08533,-3.5914 l 0.11585,-31.27997 c 0,0 -0.86537,-2.01852 -1.47711,-2.93973 -1.33068,-2.00387 -3.30086,-3.46966 -4.89474,-5.271259 -1.17956,-1.333279 -2.59454,-2.568088 -3.3597,-4.185144 -0.64141,-1.35553 -0.82516,-2.906192 -0.92681,-4.402365 -0.0912,-1.342323 0.46917,-3.559884 0.20274,-4.098257 -0.26678,-0.539071 -0.9886,-0.885661 -1.2454,-0.883368 l -12.9754,0.115851 c -0.21362,0.0019 -0.62164,0.369555 -0.82544,1.303333 -0.2038,0.933778 1.05244,3.013516 0.391,6.038771 -0.37691,1.723878 -1.88259,4.474772 -1.88259,4.474772 0,0 -3.79926,2.991356 -5.44503,4.749926 -0.69664,0.74439 -1.4073,1.51625 -1.85363,2.43288 -0.40185,0.82529 -0.69511,2.66459 -0.69511,2.66459 z"
       id="path10"
       sodipodi:nodetypes="saasssccssasssszscsscs"
       clip-path="url(#clipPath95)"
       inkscape:path-effect="#path-effect100"
       inkscape:original-d="m 125.58327,145.46821 c -0.003,1.00202 2.30616,3.79552 4.19115,4.74349 2.65997,1.33772 5.92417,0.85015 8.9001,0.75655 2.65356,-0.0835 5.32404,-0.42773 7.87792,-1.17196 2.62396,-0.76466 5.20507,-1.80756 7.53036,-3.24385 1.6322,-1.00818 3.16868,-2.23806 4.40237,-3.70726 0.89019,-1.06013 2.08533,-3.5914 2.08533,-3.5914 l 0.11585,-31.27997 c 0,0 -0.86537,-2.01852 -1.47711,-2.93973 -1.33068,-2.00387 -3.30086,-3.46966 -4.89474,-5.271259 -1.17956,-1.333279 -2.59454,-2.568088 -3.3597,-4.185144 -0.64141,-1.35553 -0.82516,-2.906192 -0.92681,-4.402365 -0.0912,-1.342323 0.46917,-3.559884 0.20274,-4.098257 -0.26678,-0.539071 -0.9886,-0.885661 -1.2454,-0.883368 l -12.9754,0.115851 c -0.21362,0.0019 -0.62164,0.369555 -0.82544,1.303333 -0.2038,0.933778 1.05244,3.013516 0.391,6.038771 -0.37691,1.723878 -1.88259,4.474772 -1.88259,4.474772 0,0 -3.79926,2.991356 -5.44503,4.749926 -0.69664,0.74439 -1.4073,1.51625 -1.85363,2.43288 -0.40185,0.82529 -0.69511,2.66459 -0.69511,2.66459 z"
       transform="matrix(0.1325529,0,0,0.1325529,1.2026637,-3.4277319)" />
    <path
       id="path5"
       style="fill:#238534;fill-opacity:1;stroke:#0d6b1d;stroke-width:0.0353557;stroke-linecap:butt;stroke-linejoin:miter;stroke-dasharray:none;stroke-opacity:1"
       d="m 14.590373,3.5030261 c -0.243689,0.00226 -0.493247,0.072261 -0.696287,0.1966589 -0.150174,0.092008 -0.24734,0.2534048 -0.322766,0.418321 -0.07543,0.164917 -0.113954,0.3619069 -0.111653,0.5484691 0.0029,0.2288386 0.225549,0.6129399 0.153506,0.6692314 -0.05341,0.041735 -0.46775,-0.3977139 -0.756431,-0.4504473 -0.259816,-0.047459 -0.563921,-0.013187 -0.78013,0.138504 -0.225716,0.1583627 -0.373435,0.4437741 -0.413115,0.7166328 -0.03911,0.2689327 0.03526,0.569071 0.189125,0.7930772 0.11561,0.1683078 0.318468,0.2638035 0.505177,0.3464659 0.150052,0.066431 0.453924,0.062226 0.479079,0.1133653 0.02871,0.058375 -0.429931,0.2861087 -0.534495,0.508739 -0.132315,0.2817179 -0.182281,0.6438964 -0.0635,0.9315811 0.104517,0.2531355 0.361995,0.4438298 0.617857,0.5414815 0.226777,0.086552 0.49563,0.076452 0.728209,0.007 0.194067,-0.057961 0.353241,-0.2070136 0.504835,-0.3381088 0.08163,-0.070591 0.163519,-0.2706801 0.218784,-0.2386494 0.04144,0.024019 -0.238701,0.7876101 -0.298311,1.1932451 -0.06175,0.4202191 -0.07411,0.8483541 -0.05966,1.2728421 0.0118,0.346803 0.111598,1.003159 0.08946,1.031658 -0.04964,0.0639 -0.09959,-0.01454 -0.144189,-0.08206 C 13.753973,11.60623 13.79319,11.254893 13.711946,11.010617 13.582776,10.62224 13.412834,10.24669 13.159711,9.9250509 12.929213,9.6321629 12.617366,9.4252869 12.319781,9.2008849 12.046592,8.9948706 11.751967,8.8176528 11.48451,8.6042549 11.359714,8.5046827 11.126537,8.28601 11.126537,8.28601 c 0,0 -0.124906,0.7271289 -0.119325,1.0938549 0.0051,0.334652 0.02438,0.6799411 0.139189,0.9943261 0.09401,0.257423 0.238476,0.50776 0.437569,0.696083 0.308261,0.291586 0.78599,0.4078 1.169956,0.588402 0.328619,0.154568 0.664579,0.236066 0.958021,0.425856 0.141916,0.09179 0.273566,0.205097 0.377839,0.338108 0.217729,0.277736 0.328292,0.624854 0.497162,0.934734 0.156211,0.286648 0.519643,0.852504 0.473463,0.881988 -0.05406,0.03451 -0.260938,-0.182857 -0.374002,-0.285366 -0.198706,-0.180155 -0.323976,-0.430427 -0.517096,-0.616556 -0.27211,-0.26226 -0.525038,-0.527457 -0.863288,-0.696014 -0.387168,-0.192934 -0.892041,-0.265981 -1.319694,-0.331053 -0.170523,-0.02595 -0.481956,-0.02692 -0.481956,-0.02692 0,0 0.213379,0.553671 0.391949,0.779103 0.201862,0.254837 0.459888,0.439122 0.748689,0.588402 0.287175,0.148439 0.611233,0.217022 0.927677,0.283105 0.229427,0.04791 0.466455,0.05767 0.689027,0.131107 0.264777,0.08737 0.539855,0.175007 0.742868,0.366124 0.456418,0.429671 1.201473,1.246081 1.270856,1.276609 0.0559,0.0246 0.161372,-0.08911 0.122543,-0.136244 -0.0162,-0.01966 -0.231819,-0.280572 -0.577992,-0.623336 -0.237082,-0.23475 -0.349158,-0.601141 -0.357973,-0.934664 -0.0062,-0.236813 0.111572,-0.470176 0.25043,-0.662107 0.125132,-0.172958 0.364038,-0.306346 0.513534,-0.458737 0.323272,-0.32953 0.53549,-0.667651 0.76739,-1.066796 0.195154,-0.335895 0.36101,-0.690226 0.497164,-1.054057 0.111063,-0.296785 0.19483,-0.604392 0.258582,-0.9147991 0.06187,-0.301238 0.113321,-0.6074 0.119325,-0.9148678 0.0029,-0.1464154 -0.03979,-0.4375003 -0.03979,-0.4375003 0,0 -0.428137,0.3701026 -0.656285,0.5369604 -0.274568,0.2008057 -0.584735,0.3504457 -0.855138,0.5568247 -0.317277,0.242157 -0.637456,0.4906281 -0.895002,0.7955441 -0.242129,0.286664 -0.42197,0.591455 -0.540318,0.947541 -0.125883,0.378759 -0.139444,0.806335 -0.102952,1.203794 0.03455,0.376339 0.285136,1.090078 0.238511,1.11139 -0.05845,0.02672 -0.161638,-0.207056 -0.224675,-0.321669 -0.151958,-0.276287 -0.275509,-0.570357 -0.364892,-0.872742 -0.158496,-0.5362 -0.250258,-1.098143 -0.277214,-1.657734 -0.01811,-0.375989 0.02019,-0.754613 0.07829,-1.1265281 0.05584,-0.357425 0.258582,-1.0540564 0.258582,-1.0540564 0,0 0.07325,-0.4246565 0.136038,-0.4214722 0.08408,0.00429 0.125293,0.527446 0.328315,0.672314 0.280832,0.2003893 0.692346,0.2100151 1.027204,0.1269962 0.333067,-0.082577 0.660365,-0.2992732 0.844314,-0.5889536 0.152002,-0.2393694 0.218251,-0.564826 0.143779,-0.8384234 C 16.911921,7.3714455 16.695794,7.204857 16.559713,7.0920761 16.423628,6.9792983 16.167661,6.9261866 16.186324,6.8809666 16.212991,6.8163409 16.577614,6.8495753 16.750889,6.7669167 17.000805,6.6476931 17.267795,6.4855331 17.391144,6.2376272 17.541437,5.935573 17.59177,5.5252228 17.435053,5.2264506 17.293776,4.957114 16.963996,4.7815241 16.662595,4.7407958 c -0.237358,-0.032076 -0.473854,0.1 -0.688,0.2072769 -0.151901,0.076095 -0.346794,0.349409 -0.409965,0.302832 -0.06265,-0.046188 0.117647,-0.4413458 0.09624,-0.6639566 -0.02342,-0.2435082 -0.0893,-0.5015949 -0.241732,-0.6929324 -0.144481,-0.1813597 -0.361149,-0.3268905 -0.58895,-0.3701666 -0.07798,-0.014812 -0.158582,-0.021575 -0.239814,-0.020822 z m -0.05315,2.4452629 a 0.66757645,0.6396313 0 0 1 0.476545,0.1714526 l 0.01207,0.011028 a 0.66757645,0.6396313 0 0 1 0.01246,0.9016472 0.66757645,0.6396313 0 0 1 -0.940965,0.017603 0.66757645,0.6396313 0 0 1 -0.02425,-0.9014418 0.66757645,0.6396313 0 0 1 0.464146,-0.20029 z m 2.099141,4.380007 c 0.0072,-1.19e-4 0.01336,0.0023 0.01822,0.0073 0.04127,0.04329 -0.204466,0.476664 -0.314957,0.711222 -0.113819,0.241622 -0.244327,0.475159 -0.358316,0.716701 -0.121714,0.257911 -0.240722,0.517397 -0.347495,0.781844 -0.116819,0.289328 -0.288182,0.874351 -0.320299,0.879521 -0.07069,0.01137 -0.04463,-0.292773 -0.03802,-0.439761 0.0097,-0.21669 0.07548,-0.443126 0.135765,-0.65149 0.07061,-0.244065 0.17684,-0.452809 0.293174,-0.678684 0.144142,-0.27987 0.285241,-0.565314 0.477777,-0.81438 0.129946,-0.1681 0.368861,-0.510908 0.454146,-0.512303 z" />
    <path
       style="fill:#0d6b1d;fill-opacity:1;fill-rule:evenodd;stroke:none;stroke-width:0.263852;stroke-dasharray:none;stroke-opacity:1"
       id="path6"
       sodipodi:type="arc"
       sodipodi:cx="127.86059"
       sodipodi:cy="95.754608"
       sodipodi:rx="63.268024"
       sodipodi:ry="66.053566"
       sodipodi:start="5.4876716"
       sodipodi:end="5.4626241"
       sodipodi:open="true"
       sodipodi:arc-type="arc"
       d="m 172.14301,48.577615 a 63.268024,66.053566 0 0 1 1.18148,93.112745 63.268024,66.053566 0 0 1 -89.176954,1.81653 63.268024,66.053566 0 0 1 -2.298293,-93.090004 63.268024,66.053566 0 0 1 89.148167,-2.982349"
       clip-path="url(#clipath_lpe_path-effect7)"
       inkscape:path-effect="#path-effect7"
       transform="matrix(0.13546248,0,0,0.13255002,0.86135639,-3.4274564)" />
    <path
       style="fill:#238534;fill-opacity:1;stroke:#0d6b1d;stroke-width:0.0350713px;stroke-linecap:butt;stroke-linejoin:miter;stroke-opacity:1"
       d="m 22.832269,5.9474593 c 0.10495,0.1796889 0.232301,0.5824054 0.310969,0.541316 0.05492,-0.028691 -0.02726,-0.2470912 -0.03137,-0.3757679 -0.0062,-0.1959006 -0.01582,-0.4021319 0.01602,-0.5955298 0.02552,-0.1550625 0.07772,-0.305006 0.13053,-0.4530162 0.04913,-0.1376879 0.102808,-0.2747408 0.17276,-0.4031076 0.06794,-0.1246641 0.183758,-0.3545687 0.238026,-0.3531988 0.03921,9.779e-4 0.08785,0.1851322 0.111335,0.284095 0.0448,0.1888212 0.05269,0.3856448 0.05375,0.579707 8.27e-4,0.1566453 -0.0081,0.3146852 -0.0384,0.4683726 -0.0278,0.1409594 -0.07153,0.2797824 -0.130529,0.4107858 -0.0502,0.1114622 -0.132564,0.2059161 -0.188118,0.3148079 -0.04429,0.086814 -0.09593,0.1731978 -0.115173,0.2687386 -0.03411,0.1693647 -0.02179,0.347428 0.0038,0.5182816 0.01724,0.1149136 0.07029,0.2216178 0.09982,0.334003 0.06603,0.2513135 0.120173,0.5056797 0.17276,0.7601459 0.0382,0.1848418 0.04284,0.5237713 0.103656,0.5566731 0.05144,0.027826 0.108572,-0.116172 0.138208,-0.1881171 0.04632,-0.1124522 0.03625,-0.2405225 0.05375,-0.3608771 0.02492,-0.1713946 0.03396,-0.3456899 0.07295,-0.5144426 0.03179,-0.1376149 0.07733,-0.2722719 0.13053,-0.4031075 0.04893,-0.1203456 0.103962,-0.2391587 0.17276,-0.34936 0.06548,-0.104871 0.226508,-0.2936926 0.226508,-0.2936926 0,0 0.195865,-0.195356 0.230348,-0.1804389 0.02686,0.011622 0.02832,0.1399822 0.03455,0.2092323 0.01,0.1111493 0.02044,0.2224347 0.02303,0.3340036 0.0041,0.1727562 0.0068,0.3464452 -0.01152,0.5182814 -0.01005,0.094588 -0.02454,0.1897291 -0.05375,0.2802555 -0.02426,0.075195 -0.05938,0.1471098 -0.09982,0.2149905 -0.07021,0.1178616 -0.245704,0.330165 -0.245704,0.330165 l -0.2649,0.3685552 c 0,0 -0.123277,0.2126623 -0.168921,0.3263248 -0.05915,0.1473019 -0.103871,0.3010779 -0.13437,0.4568559 -0.0514,0.262547 -0.07225,0.5311361 -0.08062,0.7985371 -0.0032,0.10112 -0.04878,0.288866 0.01152,0.303291 0.06146,0.0147 0.111061,-0.232437 0.165082,-0.34936 0.05477,-0.118545 0.09653,-0.243617 0.161243,-0.3570381 0.04962,-0.08696 0.105685,-0.171374 0.17276,-0.245705 0.06928,-0.07677 0.153264,-0.139088 0.234187,-0.203473 0.108967,-0.0867 0.218716,-0.173601 0.337843,-0.245704 0.12583,-0.07616 0.366689,-0.2125595 0.395429,-0.1957949 0.0148,0.00864 0.01763,0.1320049 0.0077,0.2053929 -0.0052,0.03815 -0.0349,0.120033 -0.04991,0.155485 -0.05425,0.128153 -0.104357,0.25888 -0.17276,0.380073 -0.08008,0.141884 -0.164439,0.2847631 -0.276417,0.4031071 -0.08216,0.08683 -0.183563,0.154162 -0.284095,0.21883 -0.124215,0.0799 -0.271365,0.121526 -0.391591,0.207313 -0.08991,0.06416 -0.174191,0.13921 -0.241864,0.226508 -0.04737,0.0611 -0.08182,0.132016 -0.111335,0.203472 -0.05953,0.14411 -0.09333,0.297762 -0.13053,0.449179 -0.07258,0.295391 -0.10578,0.630071 -0.182136,0.898926 -0.01188,0.04182 -0.03283,0.0752 -0.05084,0.07507 l -0.04106,-3.98e-4 c 0,0 -0.03457,-0.0053 -0.04214,-0.01028 -0.01557,-0.01018 -0.035,-0.09402 -0.02844,-0.158699 0.02452,-0.242442 0.08614,-0.463171 0.12801,-0.695114 0.03331,-0.184512 0.07186,-0.339645 0.109125,-0.570247 0.03726,-0.230602 0.08699,-0.54101 0.107495,-0.813893 0.02053,-0.2731351 0.03557,-0.5484141 0.01535,-0.8215721 -0.01253,-0.169533 -0.02884,-0.3422965 -0.08445,-0.5029324 C 23.48228,8.7888507 23.416025,8.679075 23.342868,8.5772032 23.276836,8.4852551 23.196682,8.4033676 23.112521,8.3276605 23.01053,8.2359125 22.898164,8.1555001 22.782356,8.0819572 22.679412,8.0165793 22.55824,7.9812732 22.459871,7.9091965 22.343075,7.8236169 22.234727,7.7225215 22.148902,7.6059056 22.056968,7.4809917 21.989546,7.3374747 21.93775,7.1912811 21.9111,7.1160481 21.89422,7.0366541 21.88784,6.957095 21.87964,6.8549185 21.8704,6.6788024 21.90319,6.6499642 c 0.03466,-0.030474 0.153863,0.05517 0.226507,0.09214 0.106025,0.053959 0.206813,0.1185152 0.303292,0.1881171 0.170219,0.1227999 0.353907,0.2381813 0.483729,0.4031074 0.05912,0.075105 0.0853,0.1710719 0.12669,0.2572209 0.06793,0.1413904 0.122641,0.2894766 0.199636,0.4261429 0.04756,0.08442 0.11696,0.2482354 0.161243,0.2418646 0.04114,-0.00594 0.0125,-0.2162339 -0.0038,-0.3224868 C 23.37219,7.7524098 23.297384,7.5789134 23.239209,7.4024329 23.169017,7.1894569 23.098512,6.9761547 23.012711,6.7689733 22.922252,6.550547 22.826296,6.3333472 22.70942,6.1278403 22.588174,5.9146492 22.456725,5.7049245 22.298633,5.5174197 22.19828,5.3983974 22.085506,5.2881207 21.960792,5.1949337 21.841395,5.10572 21.712929,5.0237053 21.57304,4.972265 21.454547,4.928695 21.326773,4.908745 21.200646,4.903163 21.09277,4.898423 20.983199,4.908883 20.87816,4.933877 c -0.09224,0.021981 -0.175996,0.070689 -0.264899,0.1036561 -0.09791,0.036311 -0.193741,0.080729 -0.295613,0.1036561 -0.106715,0.024019 -0.217016,0.030549 -0.326326,0.034551 -0.118994,0.00436 -0.240548,0.013157 -0.357038,-0.011517 -0.09997,-0.021168 -0.272476,-0.062813 -0.274593,-0.097528 -0.0028,-0.045887 0.148278,-0.1775127 0.232363,-0.2518319 0.08251,-0.072931 0.161305,-0.1532105 0.257221,-0.2073122 0.10437,-0.058871 0.219633,-0.1032191 0.337843,-0.122852 0.128791,-0.021387 0.262433,-0.011374 0.39159,0.00768 0.140685,0.020755 0.273952,0.076444 0.410785,0.1151731 0.08964,0.025373 0.177272,0.059082 0.268739,0.076783 0.08464,0.016384 0.232987,0.07845 0.257222,0.02687 C 21.5417,4.6553516 21.401577,4.5918039 21.338853,4.5384454 21.218959,4.4364518 21.092875,4.340628 20.958781,4.2581899 20.815931,4.1703686 20.663035,4.0993352 20.509604,4.031681 20.394346,3.980859 20.27767,3.9314002 20.156405,3.897312 c -0.09399,-0.026419 -0.190952,-0.042464 -0.287934,-0.053748 -0.108166,-0.012578 -0.218455,-0.03027 -0.326325,-0.015353 -0.07617,0.010531 -0.149493,0.039711 -0.218831,0.072946 -0.100195,0.048016 -0.186764,0.1204042 -0.280255,0.1804389 -0.113806,0.073081 -0.218592,0.1627807 -0.341682,0.21883 -0.120144,0.054711 -0.248458,0.1010683 -0.380073,0.1113343 -0.128657,0.010035 -0.262826,-0.00527 -0.383913,-0.049912 -0.09026,-0.033265 -0.238644,-0.1243919 -0.241864,-0.1574043 -0.0032,-0.033009 0.09742,-0.1473911 0.161243,-0.2073123 0.07789,-0.073126 0.170955,-0.1295575 0.264899,-0.1804389 0.131656,-0.071306 0.267377,-0.1456406 0.414626,-0.1727599 0.164945,-0.030376 0.335206,0.014736 0.502924,0.015353 0.166406,6.228e-4 0.483611,0.033475 0.499085,-0.011517 0.0121,-0.035175 -0.129626,-0.088152 -0.199634,-0.122852 -0.108168,-0.053613 -0.2216,-0.097924 -0.337841,-0.1305302 -0.138972,-0.038982 -0.282702,-0.060736 -0.426143,-0.076782 -0.199868,-0.022357 -0.401658,-0.023417 -0.602742,-0.02687 -0.125399,-0.00218 -0.250822,0.00271 -0.376234,0.00384 -0.163801,0.0015 -0.329177,0.026517 -0.491407,0.00384 -0.143975,-0.02013 -0.285623,-0.063805 -0.418464,-0.1228592 -0.131766,-0.058578 -0.251676,-0.1420554 -0.368557,-0.2265081 -0.09496,-0.068613 -0.274596,-0.1767582 -0.268737,-0.2265082 0.0055,-0.046496 0.170041,-0.083581 0.261059,-0.1074955 0.14093,-0.037026 0.288137,-0.050822 0.433821,-0.053748 0.123254,-0.00248 0.24771,0.00632 0.368556,0.030714 0.113457,0.022876 0.224366,0.060556 0.330163,0.1074956 0.119992,0.053229 0.229285,0.1279853 0.341684,0.1957953 0.12068,0.07281 0.284721,0.2214357 0.506344,0.2332942 0.263035,0.014074 0.536996,0.126304 0.575628,0.041727 0.01231,-0.026953 -0.07825,-0.066499 -0.119945,-0.096364 -0.04757,-0.034069 -0.09809,-0.06525 -0.148134,-0.094191 -0.107565,-0.062203 -0.229403,-0.1093807 -0.314808,-0.199634 -0.05946,-0.062835 -0.09438,-0.1462598 -0.126691,-0.2265082 -0.04348,-0.1079725 -0.07111,-0.222722 -0.0883,-0.3378424 -0.01853,-0.1241399 -0.05076,-0.3558791 -0.01535,-0.3762342 0.02995,-0.017219 0.108678,0.046165 0.161242,0.072945 0.08529,0.04345 0.170589,0.087943 0.249543,0.1420472 0.08854,0.060669 0.172342,0.1289129 0.249543,0.2034742 0.08806,0.085053 0.175184,0.1737364 0.241865,0.2764161 0.07141,0.1099653 0.104412,0.2408009 0.165082,0.3570384 0.04459,0.085417 0.08622,0.1738913 0.145887,0.2495427 0.05269,0.0668 0.115158,0.1269924 0.184278,0.1765994 0.08091,0.058074 0.174161,0.09715 0.264899,0.1382084 0.09375,0.042419 0.192292,0.073367 0.287934,0.1113344 0.10403,0.041298 0.207179,0.084791 0.310969,0.1266914 0.121417,0.049017 0.322686,0.1851616 0.364717,0.1458867 0.02471,-0.023094 -0.05499,-0.1044031 -0.09214,-0.1497261 -0.04764,-0.058125 -0.111241,-0.1011325 -0.165086,-0.1535635 -0.06808,-0.066288 -0.143716,-0.1266516 -0.199634,-0.2034735 -0.05356,-0.073585 -0.08896,-0.1590412 -0.126691,-0.2418645 -0.03645,-0.080017 -0.0607,-0.1592955 -0.07698,-0.2457033 -0.02274,-0.1207284 -0.0206,-0.2457145 -0.019,-0.368556 0.0014,-0.098562 -0.0092,-0.1984974 0.0077,-0.2956119 0.01961,-0.1128336 0.04126,-0.3112415 0.107495,-0.3263256 0.04882,-0.011118 0.164181,0.1415492 0.230349,0.2265082 0.07471,0.09593 0.131635,0.2052021 0.184277,0.3148078 0.06348,0.1321814 0.119716,0.2690749 0.157404,0.4107858 0.03861,0.1451765 0.04696,0.2967561 0.0691,0.445338 0.02267,0.1521514 0.01413,0.3117718 0.06527,0.4568557 0.03166,0.089834 0.08721,0.170674 0.145887,0.2457041 0.08975,0.1147615 0.202788,0.2163964 0.322485,0.2994506 0.199756,0.1386056 0.353109,0.2868551 0.510603,0.4338212 0.106867,0.099723 0.306013,0.2960693 0.341682,0.2687386 0.02051,-0.015722 -0.005,-0.1064981 -0.0192,-0.1574043 -0.01926,-0.068951 -0.0536,-0.1331661 -0.08829,-0.1957946 C 21.989018,4.5229927 21.927156,4.4527913 21.880166,4.3733704 21.811087,4.2566199 21.729834,4.1427798 21.69205,4.0124926 21.65806,3.8953186 21.65754,3.7697194 21.66134,3.6477768 c 0.0025,-0.078869 0.01483,-0.1577842 0.03455,-0.2341871 0.02186,-0.084694 0.05468,-0.1666607 0.09214,-0.2457032 0.04691,-0.098973 0.113218,-0.2820121 0.165082,-0.284095 0.0477,-0.00188 0.08097,0.1047371 0.115174,0.161243 0.06312,0.1042857 0.117642,0.2140336 0.165082,0.3263255 0.05055,0.119667 0.09988,0.2414455 0.126691,0.3685553 0.0281,0.1332059 0.03226,0.2708291 0.03455,0.406947 0.0029,0.1755237 -0.02944,0.3504298 -0.02688,0.5259596 0.0021,0.1437735 0.0023,0.2898677 0.03455,0.4299816 0.02841,0.1231943 0.08272,0.2396018 0.138209,0.3531989 z"
       id="path18"
       sodipodi:nodetypes="csssssscssssssscsssssssscssssssscsssssasssscssssscsssssscsssssssscsssscssssssssssscsssssscssssssssssssscsszsscsssssssssssssscsssassassssssssssssssccsssssscasssssssssssssssssssccc" />
    <path
       style="fill:#238534;fill-opacity:1;stroke:#0d6b1d;stroke-width:0.0350713px;stroke-linecap:butt;stroke-linejoin:miter;stroke-opacity:1"
       d="m 19.214486,7.8327124 h 1.843261 c 0,0 0.0078,-1.2113946 0,-1.2514624 -0.02384,-0.1221501 -0.201323,-0.2436857 -0.282326,-0.2443199 -0.04834,-3.844e-4 -1.238549,-0.00331 -1.275894,0 -0.09909,0.00887 -0.271434,0.1286083 -0.276896,0.2226025 -0.0031,0.053583 -0.0081,1.2731798 -0.0081,1.2731798 z"
       id="path20"
       sodipodi:nodetypes="ccssssc" />
    <text
       xml:space="preserve"
       style="font-style:normal;font-variant:normal;font-weight:normal;font-stretch:normal;font-size:5.00338px;line-height:1.25;font-family:'Apple Garamond';-inkscape-font-specification:'Apple Garamond, Normal';font-variant-ligatures:normal;font-variant-caps:normal;font-variant-numeric:normal;font-variant-east-asian:normal;text-align:center;text-anchor:middle;fill:#238534;fill-opacity:1;stroke:#0d6b1d;stroke-width:0.0260593;stroke-opacity:1"
       x="18.137154"
       y="22.362146"
       id="text20"><tspan
         sodipodi:role="line"
         id="tspan20"
         style="font-style:normal;font-variant:normal;font-weight:bold;font-stretch:normal;font-size:5.00338px;font-family:FreeSerif;-inkscape-font-specification:'FreeSerif, Bold';font-variant-ligatures:normal;font-variant-caps:normal;font-variant-numeric:normal;font-variant-east-asian:normal;fill:#238534;fill-opacity:1;stroke:#0d6b1d;stroke-width:0.0260593;stroke-opacity:1"
         x="18.137154"
         y="22.362146">TONALLI</tspan></text>
    <text
       xml:space="preserve"
       style="font-style:normal;font-variant:normal;font-weight:600;font-stretch:normal;font-size:1.91071px;line-height:1.25;font-family:'Source Code Pro';-inkscape-font-specification:'Source Code Pro, Semi-Bold';font-variant-ligatures:normal;font-variant-caps:normal;font-variant-numeric:normal;font-variant-east-asian:normal;text-align:center;text-anchor:middle;fill:#238534;fill-opacity:1;stroke:#0d6b1d;stroke-width:0.0260593;stroke-opacity:1"
       x="18.060595"
       y="24.895187"
       id="text24"><tspan
         sodipodi:role="line"
         id="tspan24"
         style="font-style:normal;font-variant:normal;font-weight:600;font-stretch:normal;font-size:1.91071px;font-family:'Source Code Pro';-inkscape-font-specification:'Source Code Pro, Semi-Bold';font-variant-ligatures:normal;font-variant-caps:normal;font-variant-numeric:normal;font-variant-east-asian:normal;fill:#238534;fill-opacity:1;stroke:#0d6b1d;stroke-width:0.0260593;stroke-opacity:1"
         x="18.060595"
         y="24.895187">COSMÉTICOS NATURALES</tspan></text>
    <g
       id="g38"
       transform="matrix(0.13245697,0,0,0.13245697,14.492513,9.6226079)"
       style="fill:none;fill-opacity:1;stroke:#0d6b1d;stroke-opacity:1">
      <path
         style="fill:none;fill-opacity:1;stroke:#0d6b1d;stroke-width:0.264583px;stroke-linecap:butt;stroke-linejoin:miter;stroke-opacity:1"
         d="m 41.81684,24.813757 c -0.42422,-0.10351 -0.87118,-0.68042 -1.63989,-0.68266 -0.91568,-0.003 -1.62295,0.51889 -2.17337,1.25068 -0.52857,0.70274 -0.48979,1.7828 -0.2826,2.63738 0.27027,1.11474 0.89395,1.89115 1.86357,2.50396 0.88033,0.55638 1.94192,0.82872 2.97791,0.72262 1.41255,-0.14467 2.86587,-0.65268 3.87751,-1.62192 0.92416,-0.88543 1.42961,-2.21178 1.63187,-3.47556 0.20867,-1.30379 0.0164,-2.70857 -0.48037,-3.93192 -0.43001,-1.05888 -1.07322,-1.97121 -2.07479,-2.72955 -1.00157,-0.75834 -2.57639,-1.31368 -3.82311,-1.50607 -1.24672,-0.19239 -2.34724,-0.0186 -3.45156,0.23873 -1.10432,0.25729 -2.20881,0.59023 -3.09406,1.26734 -0.90798,0.6945 -1.60538,1.68503 -2.08533,2.72252 -0.61377,1.32677 -0.76391,2.6392 -0.85441,4.09825 -0.0672,1.0835 0.0767,2.40324 0.37652,3.44659 0.34107,1.18681 0.74562,2.32587 1.52055,3.28729 0.76646,0.9509 1.77644,1.71373 2.83837,2.31704 0.9279,0.52716 2.16102,0.92653 3.00893,1.09386 0.84791,0.16733 1.43022,-0.0331 1.87993,0.21444 0.44972,0.24752 0.70048,0.53164 0.74516,0.92506 0.0374,0.32926 -0.12155,0.68985 -0.43414,0.89433 -0.31259,0.20448 -1.72912,0.0842 -2.58443,-0.044 -0.96427,-0.1447 -1.89265,-0.42255 -2.80765,-0.81417 -0.80611,-0.34501 -1.72062,-0.76028 -2.42967,-1.27613 -0.80062,-0.58246 -1.59825,-1.26133 -2.21494,-2.03589 -0.60949,-0.76552 -1.09563,-1.63149 -1.50607,-2.51977 -0.49175,-1.06424 -0.90993,-2.17914 -1.12956,-3.33074 -0.21731,-1.13943 -0.3034,-2.32285 -0.17377,-3.47555 0.1356,-1.20581 0.45305,-2.4138 0.98474,-3.50452 0.49328,-1.01192 1.20945,-1.91951 1.99844,-2.72251 0.92701,-0.94346 2.01657,-1.71338 3.18592,-2.33151 1.05263,-0.55644 2.18373,-0.92865 3.3597,-1.11508 1.30636,-0.2071 2.66344,-0.0883 3.96792,0.13037 0.98459,0.16502 1.88841,0.43635 2.76596,0.91233 1.19018,0.64556 2.35479,1.36656 3.25833,2.37497 0.69178,0.77207 1.23893,1.68433 1.65089,2.63562 0.43645,1.00782 0.74373,2.09189 0.83992,3.18593 0.0925,1.05184 0.005,2.13494 -0.26066,3.15696 -0.19977,0.76949 -0.57065,1.49358 -0.98474,2.17222 -0.34006,0.5573 -0.74869,1.07957 -1.21644,1.53503 -0.4496,0.43779 -0.96399,0.81343 -1.50608,1.12956 -0.72824,0.42469 -1.50326,0.79356 -2.31703,1.0137 -0.96638,0.26142 -1.9888,0.46349 -2.98318,0.34755 -1.26496,-0.14749 -2.51178,-0.62785 -3.59141,-1.30333 -0.75243,-0.47076 -1.43144,-1.10712 -1.91155,-1.85363 -0.48232,-0.74994 -0.79662,-1.56647 -0.88864,-2.45336 -0.0885,-0.85286 0.008,-1.79437 0.25642,-2.61515 0.20486,-0.67785 0.58895,-1.34127 1.00874,-1.91155 0.37656,-0.51156 0.83553,-0.99381 1.39022,-1.30334 0.51537,-0.28759 1.12156,-0.40468 1.70881,-0.4634 0.58725,-0.0587 1.30696,0.0707 1.8589,0.27969 0.605,0.22907 0.85622,0.6187 1.09472,1.06972 0.14311,0.27064 0.23708,0.6078 0.16072,0.90427 -0.0515,0.20002 -0.20686,0.38565 -0.38967,0.48179 -0.2727,0.14342 -0.61649,0.14611 -0.92155,0.0717 z"
         id="path12-8"
         sodipodi:nodetypes="ssssssaaazzzassssazzazsssssssssssssssssaasssssssssssaaass" />
      <path
         style="fill:none;fill-opacity:1;stroke:#0d6b1d;stroke-width:0.264583px;stroke-linecap:butt;stroke-linejoin:miter;stroke-opacity:1"
         d="m 48.65373,34.146747 c 0.03,0.25019 0.20748,0.50261 0.36864,0.69632 0.15683,0.18851 0.37477,0.26586 0.57344,0.4096 0.18792,0.13597 0.38821,0.25398 0.58367,0.37887 0.12979,0.0829 2.33797,2.30068 2.37567,2.34495 0.17225,0.20226 0.48192,0.28294 0.74751,0.27648 0.22627,-0.005 0.56371,-0.0698 0.73728,-0.21504 0.1815,-0.1519 0.28714,-0.67432 0.27648,-0.73728 -0.0131,-0.0777 -0.0976,-0.47686 -0.17408,-0.54271 -0.11159,-0.0961 -3.34846,-3.28703 -3.34846,-3.28703 -0.14393,-0.15738 -0.28508,-0.21301 -0.47104,-0.31743 -0.13835,-0.0777 -0.31237,-0.11424 -0.47104,-0.11264 -0.2397,0.002 -0.41608,0.0866 -0.62463,0.2048 -0.12244,0.0694 -0.24128,0.17861 -0.31744,0.29696 -0.13172,0.20468 -0.28499,0.36248 -0.256,0.60415 z"
         id="path13-8"
         sodipodi:nodetypes="sssssssssssssss" />
      <path
         style="fill:none;fill-opacity:1;stroke:#0d6b1d;stroke-width:0.264583px;stroke-linecap:butt;stroke-linejoin:miter;stroke-opacity:1"
         d="m 53.22082,27.755707 c 0.19521,0.13635 0.46799,0.0882 0.70235,0.13033 0.33274,0.0598 0.669,0.10135 0.99922,0.17378 0.31223,0.0685 0.60918,0.21033 0.92681,0.24618 0.48236,0.0545 0.98124,0.0533 1.45539,-0.0507 0.0793,-0.0174 0.15779,-0.0479 0.22446,-0.0941 0.0463,-0.0321 0.0774,-0.0819 0.11586,-0.12309 0.0873,-0.0937 0.17594,-0.18631 0.26066,-0.28239 0.0396,-0.045 0.0937,-0.0819 0.11585,-0.13758 0.0955,-0.2404 0.15023,-0.53915 0.0435,-0.77476 -0.0291,-0.0642 -0.0414,-0.0588 -0.16654,-0.13033 -0.12516,-0.0715 -0.39895,-0.1785 -0.60822,-0.23894 -0.43431,-0.12543 -1.09034,-0.23577 -1.3323,-0.25343 0,0 -2.7792,-0.0587 -2.83112,-0.0362 -0.0585,0.0253 -0.0948,0.0919 -0.11586,0.15206 -0.11306,0.32362 -0.10879,0.69662 -0.0217,1.02818 0.0385,0.14652 0.10745,0.30424 0.23164,0.39099 z"
         id="path14-8"
         sodipodi:nodetypes="sssssssssszssssss" />
      <path
         style="fill:none;fill-opacity:1;stroke:#0d6b1d;stroke-width:0.264583px;stroke-linecap:butt;stroke-linejoin:miter;stroke-opacity:1"
         d="m 51.15228,17.854997 c -0.11198,0.13665 -0.16981,0.92124 0,1.3312 0.072,0.17393 0.22543,0.32731 0.39936,0.39935 0.23651,0.098 0.53118,0.0973 0.76799,0 0.1842,-0.0756 0.27003,-0.29475 0.42496,-0.41984 0.2475,-0.19982 0.79871,-0.52223 0.79871,-0.52223 0,0 1.30746,-0.61175 1.87391,-1.0496 0.14229,-0.10999 0.25382,-0.25509 0.37376,-0.38911 0.0444,-0.0497 0.10531,-0.0909 0.128,-0.1536 0.0906,-0.25034 0.10414,-0.55369 0,-0.79872 -0.077,-0.18106 -0.24251,-0.33599 -0.42496,-0.4096 -0.40042,-0.16156 -0.91117,-0.18517 -1.29535,0 -0.0241,0.0116 -2.97999,1.93114 -3.04638,2.01215 z"
         id="path15"
         sodipodi:nodetypes="ssssscsssssss" />
      <path
         style="fill:none;fill-opacity:1;stroke:#0d6b1d;stroke-width:0.264583px;stroke-linecap:butt;stroke-linejoin:miter;stroke-opacity:1"
         d="m 45.21311,14.301737 c 0.35409,0.16134 0.83037,0.19456 1.16735,0 0.48836,-0.28195 0.58892,-0.9631 0.84586,-1.46507 0.35797,-0.69936 0.96661,-2.14963 0.96661,-2.14963 0,0 0.23814,-0.49209 0.28672,-0.75775 0.0798,-0.4365 0.19222,-0.93126 0,-1.3312 -0.0284,-0.0591 -0.25557,-0.21382 -0.31744,-0.23552 -0.29632,-0.10394 -0.50316,-0.0388 -0.77823,0.11264 -0.69346,0.38187 -0.87984,1.31806 -1.26975,2.00703 -0.33307,0.58852 -0.57243,1.22731 -0.91136,1.81247 -0.121,0.2089 -0.32986,0.37297 -0.39936,0.60416 -0.0894,0.29746 -0.1088,0.6409 0,0.93183 0.0729,0.19489 0.22025,0.38477 0.4096,0.47104 z"
         id="path16-9"
         sodipodi:nodetypes="ssscsssssssss" />
      <path
         style="fill:none;fill-opacity:1;stroke:#0d6b1d;stroke-width:0.264583px;stroke-linecap:butt;stroke-linejoin:miter;stroke-opacity:1"
         d="m 37.2188,13.998307 c 0.22276,0.0638 0.47428,0.0701 0.69511,0 0.21125,-0.0671 0.44883,-0.18312 0.54305,-0.38375 0.12985,-0.27648 0.0384,-1.63543 0,-1.83915 -0.04,-0.21245 -0.23428,-1.48286 -0.26066,-1.69433 -0.0236,-0.18872 -0.0107,-1.20516 -0.27515,-1.7233 -0.031,-0.0608 -0.10476,-0.16799 -0.15206,-0.21722 -0.0888,-0.0924 -0.13608,-0.1586 -0.25343,-0.20998 -0.38691,-0.1694 -0.8769,-0.16164 -1.26712,0 -0.0694,0.0287 -0.12727,0.0914 -0.1593,0.1593 -0.0627,0.13296 -0.0218,1.3689 0,1.51331 0.0239,0.15832 0.23851,2.01727 0.26791,2.24463 0.028,0.21678 0.16857,1.65903 0.24618,1.76674 0.14134,0.19615 0.38303,0.31722 0.61547,0.38375 z"
         id="path17"
         sodipodi:nodetypes="ssssssssssssss" />
    </g>
  </g>
</svg>
